<svg width="72" height="72" viewBox="0 0 72 72" fill="none" xmlns="http://www.w3.org/2000/svg">
	<path d="M36 0C16.119 0 0 16.119 0 36C0 55.887 16.119 72 36 72C55.881 72 72 55.887 72 36C72 16.119 55.881 0 36 0Z" fill="#002EFF"/>
	<path d="M45.9165 27.4627L49.8725 24.8017L53.7755 27.5407L52.4635 22.9617L56.2785 20.1027L51.5115 19.9337L49.9665 15.4277L48.3315 19.9017L43.5615 19.9767L47.3195 22.9107L45.9165 27.4627Z" fill="white"/>
	<path d="M24.6111 23.764C17.6541 23.764 11.4221 28.873 11.4221 37.17C11.4221 45.431 17.6541 50.54 24.6111 50.54C31.6041 50.54 37.8361 45.431 37.8361 37.17C37.8361 28.873 31.6041 23.764 24.6111 23.764ZM24.6111 45.685C20.6621 45.685 16.6041 42.931 16.6041 37.134C16.6041 31.337 20.6621 28.583 24.6111 28.583C28.5971 28.583 32.6551 31.337 32.6551 37.134C32.6551 42.931 28.5971 45.685 24.6111 45.685Z" fill="white"/>
	<path d="M51.6049 31.699C49.6849 31.699 47.5469 32.532 46.4599 34.38V32.17H41.7859V49.997H46.6049V39.743C46.6049 37.677 47.8369 36.047 49.9379 36.047C52.2569 36.047 53.2349 37.605 53.2349 39.598V49.997H58.0539V38.764C58.0539 34.851 56.0249 31.699 51.6049 31.699Z" fill="white"/>
</svg>