<svg width="63" height="131" viewBox="0 0 63 131" fill="none" xmlns="http://www.w3.org/2000/svg">
    <g clip-path="url(#clip0_1_1355)">
        <path d="M62.187 36.9586L61.925 36.9536C62.189 35.3226 62.328 33.6496 62.328 31.9436C62.328 14.7316 48.375 0.779602 31.164 0.779602C13.953 0.779602 0 14.7316 0 31.9436C0 33.2596 0.083 34.5566 0.241 35.8296L0.141 35.8276L0.326 36.4526C0.761 39.4566 1.625 42.3216 2.853 44.9836L28.101 130.204L58.643 46.6526C60.012 44.1016 61.035 41.3386 61.651 38.4246L62.187 36.9586Z" fill="#FF0099" />
        <path d="M50.8421 27.9476C50.8421 38.8156 42.0321 47.6256 31.1641 47.6256C20.2961 47.6256 11.4861 38.8156 11.4861 27.9476C11.4861 17.0796 20.2961 8.26959 31.1641 8.26959C42.0321 8.26959 50.8421 17.0796 50.8421 27.9476Z" fill="white" />
    </g>
    <defs>
        <clipPath id="clip0_1_1355">
            <rect width="62.328" height="129.424" fill="white" transform="translate(0 0.779602)" />
        </clipPath>
    </defs>
</svg>